<svg xmlns="http://www.w3.org/2000/svg" viewBox="0 0 298.34 295.74"><defs><style>.cls-1{fill:#e5c180;}</style></defs><title>pattern</title><g id="Layer_2" data-name="Layer 2"><g id="Layer_1-2" data-name="Layer 1"><polygon class="cls-1" points="281.64 78.24 298.34 74 248.65 122.34 281.64 78.24"/><polygon class="cls-1" points="260.68 89.45 260.26 97.9 243.45 119.4 253.68 93.89 260.68 89.45"/><polygon class="cls-1" points="248.07 51.22 261.64 36.25 264.52 56.25 236.8 117.43 248.07 51.22"/><polygon class="cls-1" points="234.55 80.92 236.57 88.75 230.18 115.25 230.65 87.87 234.55 80.92"/><polygon class="cls-1" points="215.38 25.55 223.98 1 232.58 25.55 223.98 115.01 215.38 25.55"/><polygon class="cls-1" points="166.57 78.24 149.87 74 199.56 122.34 166.57 78.24"/><polygon class="cls-1" points="187.53 89.45 187.95 97.9 204.76 119.4 194.53 93.89 187.53 89.45"/><polygon class="cls-1" points="200.14 51.22 186.57 36.25 183.69 56.25 211.41 117.43 200.14 51.22"/><polygon class="cls-1" points="213.66 80.92 211.64 88.75 218.03 115.25 217.56 87.87 213.66 80.92"/><polygon class="cls-1" points="223.98 147.01 201.67 124.7 246.28 124.7 223.98 147.01"/><polygon class="cls-1" points="131.89 226.97 148.59 222.73 98.91 271.06 131.89 226.97"/><polygon class="cls-1" points="110.94 238.17 110.51 246.63 93.7 268.12 103.93 242.61 110.94 238.17"/><polygon class="cls-1" points="98.32 199.94 111.9 184.98 114.77 204.98 87.05 266.15 98.32 199.94"/><polygon class="cls-1" points="84.8 229.64 86.82 237.48 80.43 263.98 80.9 236.59 84.8 229.64"/><polygon class="cls-1" points="65.63 174.28 74.23 149.72 82.84 174.28 74.23 263.74 65.63 174.28"/><polygon class="cls-1" points="16.82 226.97 0.13 222.73 49.81 271.06 16.82 226.97"/><polygon class="cls-1" points="37.78 238.17 38.2 246.63 55.02 268.12 44.78 242.61 37.78 238.17"/><polygon class="cls-1" points="50.4 199.94 36.82 184.98 33.94 204.98 61.66 266.15 50.4 199.94"/><polygon class="cls-1" points="63.91 229.64 61.89 237.48 68.28 263.98 67.81 236.59 63.91 229.64"/><polygon class="cls-1" points="74.23 295.74 51.93 273.43 96.54 273.43 74.23 295.74"/><polygon class="cls-1" points="166.57 217.49 149.87 221.73 199.56 173.4 166.57 217.49"/><polygon class="cls-1" points="187.53 206.29 187.95 197.83 204.76 176.34 194.53 201.85 187.53 206.29"/><polygon class="cls-1" points="200.14 244.52 186.57 259.48 183.69 239.49 211.41 178.31 200.14 244.52"/><polygon class="cls-1" points="213.66 214.82 211.64 206.98 218.03 180.49 217.56 207.87 213.66 214.82"/><polygon class="cls-1" points="232.83 270.19 224.23 294.74 215.63 270.19 224.23 180.72 232.83 270.19"/><polygon class="cls-1" points="281.64 217.49 298.34 221.73 248.65 173.4 281.64 217.49"/><polygon class="cls-1" points="260.68 206.29 260.26 197.83 243.45 176.34 253.68 201.85 260.68 206.29"/><polygon class="cls-1" points="248.07 244.52 261.64 259.48 264.52 239.49 236.8 178.31 248.07 244.52"/><polygon class="cls-1" points="234.55 214.82 236.57 206.98 230.18 180.49 230.65 207.87 234.55 214.82"/><polygon class="cls-1" points="224.23 148.73 246.54 171.03 201.92 171.03 224.23 148.73"/><polygon class="cls-1" points="16.7 68.77 0 73.01 49.68 24.67 16.7 68.77"/><polygon class="cls-1" points="37.66 57.56 38.08 49.11 54.89 27.61 44.66 53.12 37.66 57.56"/><polygon class="cls-1" points="50.27 95.8 36.69 110.76 33.82 90.76 61.53 29.58 50.27 95.8"/><polygon class="cls-1" points="63.79 66.09 61.77 58.26 68.16 31.76 67.69 59.14 63.79 66.09"/><polygon class="cls-1" points="82.96 121.46 74.36 146.01 65.75 121.46 74.36 32 82.96 121.46"/><polygon class="cls-1" points="131.77 68.77 148.46 73.01 98.78 24.67 131.77 68.77"/><polygon class="cls-1" points="110.81 57.56 110.39 49.11 93.57 27.61 103.81 53.12 110.81 57.56"/><polygon class="cls-1" points="98.19 95.8 111.77 110.76 114.65 90.76 86.93 29.58 98.19 95.8"/><polygon class="cls-1" points="84.68 66.09 86.7 58.26 80.31 31.76 80.78 59.14 84.68 66.09"/><polygon class="cls-1" points="74.36 0 96.66 22.31 52.05 22.31 74.36 0"/></g></g></svg>