<?xml version="1.0" encoding="utf-8"?>
<!-- Generator: Adobe Illustrator 23.0.1, SVG Export Plug-In . SVG Version: 6.00 Build 0)  -->
<svg version="1.1" id="Layer_1" xmlns="http://www.w3.org/2000/svg" xmlns:xlink="http://www.w3.org/1999/xlink" x="0px" y="0px"
	 viewBox="0 0 218.1 189.3" style="enable-background:new 0 0 218.1 189.3;" xml:space="preserve">
<style type="text/css">
	.st0{fill:#E8DDCC;}
</style>
<title>ue-logo-bw</title>
<g>
	<g id="layer">
		<path class="st0" d="M218.1,86.1V97c0,10.1-6.5,20.9-18.6,20.9h-8.7v7.1c0,10.1-6.5,20.9-18.6,20.9h-4.6v6.6
			c0,2.7-0.5,5.3-1.5,7.8c8.6,2.7,14.4,6.3,14.4,11.2c0,14-47.6,17.7-72.7,17.7s-72.7-3.7-72.7-17.7c0-6.8,11-11.1,25.3-13.8
			l-0.3-0.2H47.3c-9,0-13.9-8-13.9-15.5v-3.7H31c-9,0-13.9-8-13.9-15.5v-4.1h-3.2c-9,0-13.9-8-13.9-15.5v-7.7c0-1.1,0.9-2,2-2h31.3
			c-0.1-3.5-0.1-5.8-0.1-6v-1.3c0-0.9,0.8-1.7,1.7-1.7c0,0,0,0,0,0h181.5C217.3,84.4,218.1,85.2,218.1,86.1z M212.1,97v-6.6H39.2
			c0.1,6.9,0.6,13.8,1.5,20.7c2,14.2,7.3,34.4,31.7,47c26.1,13.6,60.2,12.3,76.2,9.4c9.7-1.8,13.1-9.2,13.1-15V146h-36.7
			c-1.7,0-3-1.3-3-3s1.3-3,3-3h47.3c9.2,0,12.6-8.9,12.6-14.9v-7.1h-59.8c-1.7,0-3-1.3-3-3s1.3-3,3-3h74.6
			C208.7,111.9,212.1,103,212.1,97L212.1,97z M174.5,171.5c0-1.3-2.1-3.6-11.1-6.3c-3.1,4-7.4,6.8-12.4,7.9c-1.8,1.3-5.6,2.5-13,3.4
			c-10.1,1-20.2,1.4-30.3,1.4c-10.1,0.1-20.2-0.4-30.3-1.4c-12.3-1.3-14.6-4.1-14.6-5.6s1.9-3.7,11.2-5.2c-1.5-0.7-3.1-1.4-4.6-2.2
			c-1-0.5-1.9-1-2.8-1.5c-2.7,0.5-5.3,0.9-7.7,1.5c-15,3.4-18,6.7-18,8.1s3.1,4.6,18,8c13,2.9,30.3,4.6,48.7,4.6s35.7-1.6,48.7-4.6
			C171.4,176.1,174.5,173.1,174.5,171.5z M74.8,171.1c7.9,1.2,15.9,1.9,23.8,2c-5.6-1-11.1-2.4-16.4-4.3c-2.8,0.3-5.3,0.6-7.4,1
			c-0.5,0-0.9,0.1-0.9,0.6c0,0.5,0.4,0.9,0.9,0.9C74.8,171.3,74.8,171.3,74.8,171.1L74.8,171.1z M47.3,151.5h5.8
			c-3.9-3.9-7.3-8.4-10.1-13.3h-3.7v3.7C39.3,144.6,40.8,151.5,47.3,151.5z M31,132.3h9c-1.9-4.4-3.3-9-4.2-13.6H23.1v4.1
			C23.1,125.4,24.5,132.3,31,132.3z M13.9,112.7h20.9c0-0.3-0.1-0.5-0.1-0.7c-0.6-4.3-1-8.7-1.2-12.5H6v3.7
			C6,105.8,7.4,112.7,13.9,112.7z"/>
		<path class="st0" d="M138.4,53.6c0.8,2.7,1.1,5.5,0.9,8.3c-0.2,2.2-0.7,4.3-1.6,6.3c-1.1,2.4-2.8,4.4-4.9,5.9
			c-0.5,0.3-1,0.6-1.5,0.9l-0.5,0.2l0.2-0.5c0.1-0.3,0.4-0.8,0.7-1.5c0.9-2,1.5-4.1,1.7-6.3c0.3-3.7-0.5-7.5-2.1-10.8
			c-2-4.3-5.4-9.3-10.6-14.7l-0.5-0.5l-0.2-0.2l-0.3-0.3c-0.4-0.4-0.7-0.8-1.1-1.2s-0.7-0.8-1.1-1.2s-0.6-0.9-0.9-1.3
			s-0.6-0.9-0.9-1.3l-0.7-1.4l-0.7-1.4c-0.2-0.5-0.4-1-0.6-1.4c-1.3-3.4-1.7-7-1.4-10.5c0.5-4.7,2.1-9.3,4.7-13.3
			c1.3-2.1,2.8-4,4.5-5.8c0.5-0.5,1.1-1,1.6-1.5c-0.1,0.7-0.2,1.5-0.4,2.2c-0.3,1.5-0.9,3.7-1.6,6.8c-1,3.8-1.4,7.8-1.3,11.8
			c0.2,2.5,0.8,4.9,1.8,7.1l0.4,0.9l0.6,0.9c0.2,0.3,0.3,0.6,0.5,0.9l0.7,0.9l0.7,0.9c0.2,0.3,0.5,0.6,0.8,0.9l0.8,0.9l0.2,0.2
			l0.3,0.3l0.6,0.6C133,41.3,136.8,47.7,138.4,53.6z"/>
		<path class="st0" d="M113.6,64.3c0.2,1.7,0.1,3.5-0.3,5.2c-0.3,1.2-0.9,2.4-1.7,3.4c-0.5,0.6-1.1,1.2-1.8,1.7
			c-0.4,0.3-0.8,0.5-1.2,0.7l-0.4,0.2c0,0,0-0.1,0.1-0.4s0.3-0.7,0.4-1.2c0.5-1.5,0.7-3.1,0.5-4.7c-0.5-2.7-1.7-5.3-3.4-7.5
			c-2.8-3.8-5.9-7.3-9.3-10.5c-2.3-2.2-4.1-4.8-5.5-7.7c-1.3-2.6-1.8-5.4-1.7-8.3c0.2-2.3,0.8-4.4,1.9-6.4c0.4-0.8,0.9-1.5,1.4-2.2
			c0.4-0.6,0.9-1.2,1.5-1.7c0.5-0.5,0.9-0.9,1.3-1.3l1.2-0.9c0.6-0.5,1.3-0.9,1.9-1.2c0.5-0.3,1-0.5,1.6-0.7
			c-0.2,0.5-0.4,1.1-0.6,1.6c-0.2,0.5-0.6,1.2-0.9,2l-0.6,1.3L97.5,27c-1.1,2.5-1.6,5.3-1.4,8c0.2,1.7,0.8,3.3,1.8,4.8
			c1.2,2,2.7,3.9,4.4,5.5c3.9,3.7,7.1,8.1,9.5,12.9C112.7,60.1,113.3,62.2,113.6,64.3z"/>
	</g>
</g>
</svg>
