<svg xmlns="http://www.w3.org/2000/svg" viewBox="0 0 218.09 189.34"><defs><style>.cls-1{fill:#fff;}</style></defs><title>ue-logo-bw</title><g id="Layer_2" data-name="Layer 2"><g id="layer"><path class="cls-1" d="M218.09,86.11V97c0,10.14-6.51,20.92-18.58,20.92h-8.74v7.14c0,10.14-6.51,20.92-18.58,20.92H167.6v6.58a21.45,21.45,0,0,1-1.51,7.84c8.61,2.67,14.41,6.3,14.41,11.2,0,14-47.57,17.73-72.73,17.73s-72.72-3.7-72.72-17.73c0-6.77,11.05-11.13,25.32-13.83l-.33-.24H47.25c-9,0-13.91-8-13.91-15.54v-3.71H31c-9,0-13.91-8-13.91-15.54v-4.1H13.91c-9,0-13.91-8-13.91-15.54V95.43a2,2,0,0,1,2-2H33.27c-.11-3.46-.09-5.77-.09-6V86.1a1.68,1.68,0,0,1,1.69-1.67H216.41A1.68,1.68,0,0,1,218.09,86.11Zm-6,10.9V90.43H39.2a187,187,0,0,0,1.45,20.67c2,14.15,7.35,34.43,31.66,47,26.13,13.56,60.18,12.29,76.18,9.4,9.68-1.75,13.11-9.16,13.11-15V146H124.93a3,3,0,0,1,0-6h47.26c9.23,0,12.58-8.92,12.58-14.92v-7.14H124.93a3,3,0,0,1,0-6h74.58C208.74,111.93,212.09,103,212.09,97ZM174.5,171.49c0-1.34-2.09-3.61-11.09-6.26a21.27,21.27,0,0,1-12.35,7.87c-1.84,1.25-5.63,2.54-13,3.35a295.69,295.69,0,0,1-30.26,1.36,295.63,295.63,0,0,1-30.25-1.36c-12.3-1.34-14.63-4.14-14.63-5.62s1.89-3.73,11.24-5.17c-1.54-.69-3.07-1.41-4.59-2.19-1-.5-1.87-1-2.77-1.53-2.7.46-5.27.95-7.68,1.5-15,3.4-18,6.72-18,8.05s3.06,4.64,18,8c13,2.95,30.26,4.58,48.68,4.58s35.72-1.63,48.69-4.58C171.44,176.13,174.5,173.12,174.5,171.49Zm-99.73-.4a183.1,183.1,0,0,0,23.83,2,113.79,113.79,0,0,1-16.41-4.28c-2.85.3-5.34.63-7.42,1A.66.66,0,0,0,74.77,171.09ZM47.25,151.54h5.81A60.46,60.46,0,0,1,43,138.29H39.34V142C39.34,144.65,40.76,151.54,47.25,151.54ZM31,132.29h9a70.12,70.12,0,0,1-4.23-13.64H23.12v4.1C23.12,125.41,24.54,132.29,31,132.29ZM13.91,112.65h20.9c0-.25-.07-.5-.11-.73-.58-4.27-1-8.66-1.17-12.52H6v3.71C6,105.77,7.42,112.65,13.91,112.65Z"/><path class="cls-1" d="M138.42,53.58a24.59,24.59,0,0,1,.92,8.27,18.38,18.38,0,0,1-1.6,6.34,15,15,0,0,1-4.9,5.94,10.94,10.94,0,0,1-1.46.89l-.49.24.21-.5c.14-.34.38-.82.66-1.51a21.39,21.39,0,0,0,1.69-6.33,20.94,20.94,0,0,0-2.14-10.83c-2-4.33-5.44-9.32-10.59-14.65l-.48-.5L120,40.7l-.28-.31c-.38-.42-.74-.84-1.11-1.24s-.73-.81-1.06-1.24-.63-.89-.93-1.33-.61-.87-.9-1.31L115,33.88l-.7-1.36c-.2-.47-.37-1-.55-1.41a24.14,24.14,0,0,1-1.43-10.52A30.37,30.37,0,0,1,117,7.27a33.47,33.47,0,0,1,4.52-5.77A18.48,18.48,0,0,1,123.16,0a20.33,20.33,0,0,1-.43,2.17c-.34,1.45-.87,3.68-1.62,6.83a41.4,41.4,0,0,0-1.27,11.75,20.17,20.17,0,0,0,1.81,7.11l.41.92.55.88c.17.31.35.61.53.92l.68.88.67.92c.24.3.54.57.8.87l.82.9.21.23.27.28.55.56C133,41.28,136.78,47.65,138.42,53.58Z"/><path class="cls-1" d="M113.58,64.27a12.82,12.82,0,0,1-.31,5.15,9.65,9.65,0,0,1-1.69,3.36,8.89,8.89,0,0,1-1.77,1.66,7.09,7.09,0,0,1-1.16.66l-.39.16s0-.13.14-.4.25-.65.41-1.19a10.27,10.27,0,0,0,.47-4.68,17.63,17.63,0,0,0-3.44-7.46A85.2,85.2,0,0,0,96.52,51,27.83,27.83,0,0,1,91,43.35a16.88,16.88,0,0,1-1.7-8.28,15.11,15.11,0,0,1,1.92-6.41,15.39,15.39,0,0,1,1.44-2.19,13.87,13.87,0,0,1,1.46-1.68c.48-.48.92-.91,1.35-1.29l1.24-.94a14.05,14.05,0,0,1,1.93-1.22,13,13,0,0,1,1.56-.74,14.51,14.51,0,0,1-.63,1.59c-.24.53-.56,1.17-.9,2l-.59,1.3L97.48,27a16.53,16.53,0,0,0-1.38,8,12.53,12.53,0,0,0,1.75,4.8,28.48,28.48,0,0,0,4.4,5.5,46.11,46.11,0,0,1,9.52,12.9A21.36,21.36,0,0,1,113.58,64.27Z"/></g></g></svg>