<svg xmlns="http://www.w3.org/2000/svg" viewBox="0 0 218.09 189.34"><defs><style>.cls-1{fill:#6e0d0d;}.cls-2{fill:#e5c181;}</style></defs><title>ue-logo-clr</title><g id="Layer_2" data-name="Layer 2"><g id="layer"><path class="cls-1" d="M98.85,173.38a183.1,183.1,0,0,1-23.83-2,.66.66,0,0,1,0-1.25c2.08-.36,4.57-.69,7.42-1A113.79,113.79,0,0,0,98.85,173.38Z" transform="translate(-0.25 -0.25)"/><path class="cls-1" d="M163.66,165.48c9,2.65,11.09,4.92,11.09,6.26,0,1.63-3.06,4.64-18,8-13,2.95-30.26,4.58-48.69,4.58s-35.71-1.63-48.68-4.58c-15-3.4-18-6.72-18-8s3.06-4.65,18-8.05c2.41-.55,5-1,7.68-1.5.9.52,1.82,1,2.77,1.53,1.52.78,3,1.5,4.59,2.19-9.35,1.44-11.24,3.84-11.24,5.17s2.33,4.28,14.63,5.62A295.63,295.63,0,0,0,108,178.06a295.69,295.69,0,0,0,30.26-1.36c7.4-.81,11.19-2.1,13-3.35A21.27,21.27,0,0,0,163.66,165.48Z" transform="translate(-0.25 -0.25)"/><path class="cls-1" d="M53.31,151.79H47.5c-6.49,0-7.91-6.89-7.91-9.54v-3.71h3.66A60.46,60.46,0,0,0,53.31,151.79Z" transform="translate(-0.25 -0.25)"/><path class="cls-1" d="M40.29,132.54h-9c-6.49,0-7.91-6.88-7.91-9.54v-4.1H36.06A70.12,70.12,0,0,0,40.29,132.54Z" transform="translate(-0.25 -0.25)"/><path class="cls-1" d="M35.06,112.9H14.16c-6.49,0-7.91-6.88-7.91-9.54V99.65H33.78c.22,3.86.59,8.25,1.17,12.52C35,112.4,35,112.65,35.06,112.9Z" transform="translate(-0.25 -0.25)"/><path class="cls-1" d="M212.34,90.68v6.58c0,6-3.35,14.92-12.58,14.92H125.18a3,3,0,0,0,0,6H185v7.14c0,6-3.35,14.92-12.58,14.92H125.18a3,3,0,0,0,0,6h36.67v6.58c0,5.81-3.43,13.22-13.11,15-16,2.89-50.05,4.16-76.18-9.4-24.31-12.61-29.71-32.89-31.66-47a187,187,0,0,1-1.45-20.67Z" transform="translate(-0.25 -0.25)"/><path class="cls-2" d="M218.34,86.36v10.9c0,10.14-6.51,20.92-18.58,20.92H191v7.14c0,10.14-6.51,20.92-18.58,20.92h-4.59v6.58a21.45,21.45,0,0,1-1.51,7.84c8.61,2.67,14.41,6.3,14.41,11.2,0,14-47.57,17.73-72.73,17.73s-72.72-3.7-72.72-17.73c0-6.77,11.05-11.13,25.32-13.83l-.33-.24H47.5c-9,0-13.91-8-13.91-15.54v-3.71H31.28c-9,0-13.91-8-13.91-15.54v-4.1H14.16c-9,0-13.91-8-13.91-15.54V95.68a2,2,0,0,1,2-2H33.52c-.11-3.46-.09-5.77-.09-6V86.35a1.68,1.68,0,0,1,1.69-1.67H216.66A1.68,1.68,0,0,1,218.34,86.36Zm-6,10.9V90.68H39.45a187,187,0,0,0,1.45,20.67c2,14.15,7.35,34.43,31.66,47,26.13,13.56,60.18,12.29,76.18,9.4,9.68-1.75,13.11-9.16,13.11-15v-6.58H125.18a3,3,0,0,1,0-6h47.26c9.23,0,12.58-8.92,12.58-14.92v-7.14H125.18a3,3,0,0,1,0-6h74.58C209,112.18,212.34,103.26,212.34,97.26Zm-37.59,74.48c0-1.34-2.09-3.61-11.09-6.26a21.27,21.27,0,0,1-12.35,7.87c-1.84,1.25-5.63,2.54-13,3.35A295.69,295.69,0,0,1,108,178.06a295.63,295.63,0,0,1-30.25-1.36c-12.3-1.34-14.63-4.14-14.63-5.62s1.89-3.73,11.24-5.17c-1.54-.69-3.07-1.41-4.59-2.19-1-.5-1.87-1-2.77-1.53-2.7.46-5.27.95-7.68,1.5-15,3.4-18,6.72-18,8.05s3.06,4.64,18,8c13,2.95,30.26,4.58,48.68,4.58s35.72-1.63,48.69-4.58C171.69,176.38,174.75,173.37,174.75,171.74ZM75,171.34a183.1,183.1,0,0,0,23.83,2,113.79,113.79,0,0,1-16.41-4.28c-2.85.3-5.34.63-7.42,1A.66.66,0,0,0,75,171.34ZM47.5,151.79h5.81a60.46,60.46,0,0,1-10.06-13.25H39.59v3.71C39.59,144.9,41,151.79,47.5,151.79ZM31.28,132.54h9a70.12,70.12,0,0,1-4.23-13.64H23.37V123C23.37,125.66,24.79,132.54,31.28,132.54ZM14.16,112.9h20.9c0-.25-.07-.5-.11-.73-.58-4.27-1-8.66-1.17-12.52H6.25v3.71C6.25,106,7.67,112.9,14.16,112.9Z" transform="translate(-0.25 -0.25)"/><path class="cls-2" d="M123,2.42c-.34,1.45-.87,3.68-1.62,6.83A41.4,41.4,0,0,0,120.09,21a20.17,20.17,0,0,0,1.81,7.11l.41.92.55.88c.17.31.35.61.53.92l.68.88.67.92c.24.3.54.57.8.87l.82.9.21.23.27.28.55.56c5.87,6.06,9.64,12.43,11.28,18.36a24.59,24.59,0,0,1,.92,8.27,18.38,18.38,0,0,1-1.6,6.34,15,15,0,0,1-4.9,5.94,10.94,10.94,0,0,1-1.46.89l-.49.24.21-.5c.14-.34.38-.82.66-1.51a21.39,21.39,0,0,0,1.69-6.33,20.94,20.94,0,0,0-2.14-10.83C129.6,52,126.12,47,121,41.69l-.48-.5-.24-.24-.28-.31c-.38-.42-.74-.84-1.11-1.24s-.73-.81-1.06-1.24-.63-.89-.93-1.33-.61-.87-.9-1.31l-.74-1.39-.7-1.36c-.2-.47-.37-1-.55-1.41a24.14,24.14,0,0,1-1.43-10.52,30.37,30.37,0,0,1,4.69-13.32,33.47,33.47,0,0,1,4.52-5.77,18.48,18.48,0,0,1,1.65-1.5A20.33,20.33,0,0,1,123,2.42Z" transform="translate(-0.25 -0.25)"/><path class="cls-2" d="M111.83,73a8.89,8.89,0,0,1-1.77,1.66,7.09,7.09,0,0,1-1.16.66l-.39.16s0-.13.14-.4.25-.65.41-1.19a10.27,10.27,0,0,0,.47-4.68,17.63,17.63,0,0,0-3.44-7.46,85.2,85.2,0,0,0-9.32-10.57,27.83,27.83,0,0,1-5.51-7.61,16.88,16.88,0,0,1-1.7-8.28,15.11,15.11,0,0,1,1.92-6.41,15.39,15.39,0,0,1,1.44-2.19A13.87,13.87,0,0,1,94.38,25c.48-.48.92-.91,1.35-1.29L97,22.81a14.05,14.05,0,0,1,1.93-1.22,13,13,0,0,1,1.56-.74,14.51,14.51,0,0,1-.63,1.59c-.24.53-.56,1.17-.9,2l-.59,1.3-.61,1.53a16.53,16.53,0,0,0-1.38,8,12.53,12.53,0,0,0,1.75,4.8,28.48,28.48,0,0,0,4.4,5.5A46.11,46.11,0,0,1,112,58.47a21.36,21.36,0,0,1,1.81,6,12.82,12.82,0,0,1-.31,5.15A9.65,9.65,0,0,1,111.83,73Z" transform="translate(-0.25 -0.25)"/></g></g></svg>