<?xml version="1.0" encoding="utf-8"?>
<!-- Generator: Adobe Illustrator 23.0.1, SVG Export Plug-In . SVG Version: 6.00 Build 0)  -->
<svg version="1.1" id="Layer_1" xmlns="http://www.w3.org/2000/svg" xmlns:xlink="http://www.w3.org/1999/xlink" x="0px" y="0px"
	 viewBox="0 0 262 98" style="enable-background:new 0 0 262 98;" xml:space="preserve">
<style type="text/css">
	.st0{fill:#E8DDCC;}
</style>
<g>
	<path class="st0" d="M24.3,40.9c-0.2,0.4-0.4,0.7-0.8,1s-0.8,0.4-1.3,0.4h-4.1c-1,0-1.7-0.3-2.2-0.9s-0.7-1.3-0.7-2.1V14.6H14v-2.7
		h0.4v2.3h1v25.1c0,0.7,0.2,1.3,0.7,1.8c0.5,0.5,1.2,0.8,2.1,0.8h3.9c0.4,0,0.8,0,1.1-0.1C23.6,41.6,23.9,41.4,24.3,40.9z
		 M24.3,14.6V39c0,0.7-0.2,1.3-0.5,1.6s-0.8,0.6-1.4,0.6H18c-0.6,0-1.1-0.2-1.4-0.6s-0.5-0.9-0.5-1.6V13.6h-1.1v-1.7h3.4v27.7H21
		V11.9h0.4v27.7H22V11.9h3.4v1.7h-1.1v0.7h1.1v0.4H24.3z"/>
	<path class="st0" d="M27.8,25.2v-7h0.4v6.6h2.9v0.4H27.8z M36.7,25.2V21h-1.1v18.6h1.1v1.7h-4.5V21h-1.1v3.2h-2.3v-5.9H40v5.9h-2.3
		v-4.2h-2.1v0.6h1.5v4.3H40v0.4H36.7z M33.3,19.9h-2.1v0.6h1.5v19h0.6V19.9z M31.2,42.3v-2.7h0.4v2.3h5.1v0.4H31.2z"/>
	<path class="st0" d="M42.2,42.3v-2.7h0.4v2.3h4.1v0.4H42.2z M49.3,42.3V30.9h-2.5v10.4h-3.4V20.5c0-1.1,0.4-1.9,1.2-2.1
		c-0.5,0.5-0.8,1.2-0.8,2.1v19.1h0.6V20.5c0-0.7,0.2-1.3,0.5-1.6c0.3-0.4,0.8-0.6,1.4-0.6h4.5c0.6,0,1,0.2,1.4,0.6s0.5,1,0.5,1.7
		v19.1h1.2v1.7h-3.4V29.8h-3.6v0.6h3v11.4h4.1v0.4H49.3z M50.3,19.9h-3.6v0.6h3v7.6h0.6V19.9z M49.3,21h-2.5v7.1h2.5V21z"/>
	<path class="st0" d="M65.3,39c0,0.7-0.2,1.3-0.5,1.6s-0.8,0.6-1.4,0.6h-4.5c-0.6,0-1.1-0.2-1.4-0.6s-0.5-0.9-0.5-1.6v-4.4h2.3v4.9
		h2.5v-8.7H59c-1,0-1.8-0.3-2.3-0.9S56,28.6,56,27.8v-7.4c0-1.1,0.4-1.9,1.2-2.1c-0.5,0.5-0.8,1.2-0.8,2.1v7.4
		c0,0.7,0.2,1.3,0.7,1.8c0.4,0.5,1.1,0.8,2,0.8h3.2v9.1H63v-9.8h-4.1c-0.6,0-1.1-0.2-1.4-0.6c-0.3-0.4-0.5-0.9-0.5-1.6v-7.1
		c0-1.5,0.6-2.2,1.9-2.2h4.5c0.6,0,1.1,0.2,1.4,0.6s0.5,1,0.5,1.7v3.7H63v-4.3h-3.6v0.6h3v4.3h2.9v0.4h-3.3V21h-2.5v7.1h4
		c0.6,0,1.1,0.2,1.4,0.6c0.3,0.4,0.5,1,0.5,1.7V39z M65.2,40.9c-0.2,0.4-0.4,0.7-0.8,1c-0.4,0.2-0.8,0.4-1.3,0.4H59
		c-1,0-1.7-0.3-2.2-0.9S56,40,56,39.3v-4.6h0.4v4.6c0,0.7,0.2,1.3,0.7,1.8c0.5,0.5,1.1,0.8,2.1,0.8h3.9c0.4,0,0.8,0,1.1-0.1
		C64.5,41.6,64.9,41.4,65.2,40.9z"/>
	<path class="st0" d="M69.1,41.2V21H68v-2.7h0.4v2.3h1v19h0.7V19.9h-1.1v-1.7h9.2v6H76v-4.3h-3.6v0.6h3v4.3h2.9v0.4H75V21h-2.6v7.1
		H77v1.7h-4.6v0.6H77v0.4h-4.6v8.7H75v-4.9h0.4v4.9H76v-4.9h2.3v6.6H69.1z M68,42.3v-2.7h0.4v2.3h9.8v0.4H68z"/>
	<path class="st0" d="M81.6,41.2V21h-1.1v-2.7H81v2.3h1v19h0.7V19.9h-1.1v-1.7H86v1.7h-1.1v0.6H86V21h-1.1v18.6h2.6v-4.9h0.4v4.9
		h0.7v-4.9h2.3v6.6H81.6z M80.6,42.3v-2.7H81v2.3h9.8v0.4H80.6z"/>
	<path class="st0" d="M94.1,41.2V21h-1.1v-2.7h0.4v2.3h1v19h0.7V19.9h-1.1v-1.7h4.4v1.7h-1.1v0.6h1.1V21h-1.1v18.6h2.6v-4.9h0.4v4.9
		h0.7v-4.9h2.3v6.6H94.1z M93.1,42.3v-2.7h0.4v2.3h9.8v0.4H93.1z"/>
	<path class="st0" d="M105.6,42.3v-2.7h0.4v2.3h4.1v0.4H105.6z M112.6,42.3V30.9h-2.5v10.4h-3.4V20.5c0-1.1,0.4-1.9,1.2-2.1
		c-0.5,0.5-0.8,1.2-0.8,2.1v19.1h0.6V20.5c0-0.7,0.2-1.3,0.5-1.6c0.3-0.4,0.8-0.6,1.4-0.6h4.5c0.6,0,1,0.2,1.4,0.6s0.5,1,0.5,1.7
		v19.1h1.2v1.7h-3.4V29.8h-3.6v0.6h3v11.4h4.1v0.4H112.6z M112.7,16.6h-2.8l2-4.4h0.4l-1.8,4h2.4L112.7,16.6z M113.7,19.9h-3.6v0.6
		h3v7.6h0.6V19.9z M112.6,21h-2.5v7.1h2.5V21z M113.2,15.6h-1.7l1.6-3.4h2L113.2,15.6z"/>
	<path class="st0" d="M119.4,25.2v-7h0.4v6.6h2.9v0.4H119.4z M128.2,25.2V21h-1.1v18.6h1.1v1.7h-4.5V21h-1.1v3.2h-2.3v-5.9h11.1v5.9
		h-2.3v-4.2h-2.1v0.6h1.5v4.3h2.9v0.4H128.2z M124.8,19.9h-2.1v0.6h1.5v19h0.6V19.9z M122.7,42.3v-2.7h0.4v2.3h5.1v0.4H122.7z"/>
	<path class="st0" d="M143.5,40.9c-0.2,0.4-0.4,0.7-0.8,1c-0.4,0.2-0.8,0.4-1.3,0.4h-4.1c-1,0-1.7-0.3-2.2-0.9s-0.7-1.3-0.7-2.1
		V20.5c0-1.1,0.4-1.9,1.2-2.1c-0.5,0.5-0.8,1.2-0.8,2.1v18.8c0,0.7,0.2,1.3,0.7,1.8c0.5,0.5,1.1,0.8,2.1,0.8h3.9
		c0.4,0,0.8,0,1.1-0.1C142.8,41.6,143.2,41.4,143.5,40.9z M143.5,39c0,0.7-0.2,1.3-0.5,1.6s-0.8,0.6-1.4,0.6h-4.5
		c-0.6,0-1.1-0.2-1.4-0.6s-0.5-0.9-0.5-1.6V20.5c0-0.7,0.2-1.3,0.5-1.6s0.8-0.6,1.4-0.6h4.5c0.6,0,1.1,0.2,1.4,0.6s0.5,1,0.5,1.7V39
		z M140.2,16.6h-2.8l2-4.4h0.4l-1.8,4h2.4L140.2,16.6z M141.3,19.9h-3.6v0.6h3v19h0.6V19.9z M140.2,21h-2.5v18.6h2.5V21z
		 M140.6,15.6h-1.7l1.6-3.4h2L140.6,15.6z"/>
	<path class="st0" d="M163.5,42.3V27.7h-2.6v11.9h1.1v1.7h-4.5V14.6h-1.1v-2.7h0.4v2.3h1v25.4h0.7v-26h-1.1v-1.7h4.5v1.7h-1.1v0.6
		h1.1v0.4h-1.1v10.2h2.6v-13h0.4v13h0.7v-13h3.4v1.7h-1.1v0.6h1.1v0.4h-1.1v9.1c0,0.6-0.1,1-0.3,1.3c-0.2,0.3-0.5,0.5-0.8,0.6v0.1
		c0.3,0.1,0.6,0.3,0.8,0.6c0.2,0.3,0.3,0.8,0.3,1.6v11.6h1.2v1.7h-3.4V26.6h-3.6v0.6h3v14.6h4.1v0.4H163.5z M156.5,42.3v-2.7h0.4
		v2.3h5.1v0.4H156.5z"/>
	<path class="st0" d="M170.4,42.3v-2.7h0.4v2.3h4.1v0.4H170.4z M177.5,42.3V30.9h-2.5v10.4h-3.4V20.5c0-1.1,0.4-1.9,1.2-2.1
		c-0.5,0.5-0.8,1.2-0.8,2.1v19.1h0.6V20.5c0-0.7,0.2-1.3,0.5-1.6c0.3-0.4,0.8-0.6,1.4-0.6h4.5c0.6,0,1,0.2,1.4,0.6s0.5,1,0.5,1.7
		v19.1h1.2v1.7h-3.4V29.8h-3.6v0.6h3v11.4h4.1v0.4H177.5z M177.6,16.6h-2.8l2-4.4h0.4l-1.8,4h2.4L177.6,16.6z M178.5,19.9h-3.6v0.6
		h3v7.6h0.6V19.9z M177.5,21h-2.5v7.1h2.5V21z M178,15.6h-1.7l1.6-3.4h2L178,15.6z"/>
	<path class="st0" d="M191.6,42.3h-3.3l-2.4-10.5c-0.3-1.3-0.5-2.3-0.5-3.1c0-0.8-0.1-1.3-0.1-1.5V21h-1.1v-2.7h0.4v2.3h1v6.7
		c0,0.2,0,0.7,0.1,1.5c0.1,0.8,0.2,1.8,0.5,3.1l2.2,10.1h3.1L191.6,42.3z M194.6,21v6.2c0,0.2,0,0.7-0.1,1.5
		c-0.1,0.8-0.3,1.8-0.5,3.1l-2.1,9.5h-2.7l-2.1-9.5c-0.3-1.3-0.4-2.3-0.5-3.1s-0.1-1.3-0.1-1.5v-7.3h-1.1v-1.7h3.4v9
		c0,0.2,0,0.7,0.1,1.5c0,0.8,0.2,1.8,0.4,3.1l0.7,3.9l0.7-3.9c0.1-0.6,0.2-1.2,0.3-1.8c0.1-0.6,0.1-1,0.2-1.5c0-0.5,0.1-0.9,0.1-1.3
		v-9h0.4v9c0,0.2,0,0.7-0.1,1.5c-0.1,0.8-0.2,1.8-0.5,3.1l-0.9,5l0.3,1.4h0.1l1.2-6.5c0.3-1.3,0.4-2.3,0.5-3.1
		c0-0.8,0.1-1.2,0.1-1.5v-9h3.4v1.7h-1.1v0.6h1.1V21H194.6z"/>
	<path class="st0" d="M199,41.2V21h-1.1v-2.7h0.4v2.3h1v19h0.7V19.9H199v-1.7h9.2v6h-2.3v-4.3h-3.6v0.6h3v4.3h2.9v0.4h-3.3V21h-2.6
		v7.1h4.6v1.7h-4.6v0.6h4.6v0.4h-4.6v8.7h2.6v-4.9h0.4v4.9h0.7v-4.9h2.3v6.6H199z M197.9,42.3v-2.7h0.4v2.3h9.8v0.4H197.9z
		 M204.3,16.6h-2.8l2-4.4h0.4l-1.8,4h2.4L204.3,16.6z M204.8,15.6h-1.7l1.6-3.4h2L204.8,15.6z"/>
	<path class="st0" d="M210.5,42.3v-2.7h0.4v2.3h4.1v0.4H210.5z M217.5,42.3V30.9H215v10.4h-3.4V21h-1.1v-2.7h0.4v2.3h1v19h0.6V19.9
		h-1v-1.7h3.4v9.9h2.5v-9.9h0.4v9.9h0.6v-9.9h3.4v1.7h-1.2v0.6h1.2V21h-1.2v18.6h1.2v1.7h-3.4V29.8H215v0.6h3v11.4h4.1v0.4H217.5z"
		/>
	<path class="st0" d="M224.2,42.3v-2.7h0.4v2.3h4.1v0.4H224.2z M231.3,42.3V30.9h-2.5v10.4h-3.4V20.5c0-1.1,0.4-1.9,1.2-2.1
		c-0.5,0.5-0.8,1.2-0.8,2.1v19.1h0.6V20.5c0-0.7,0.2-1.3,0.5-1.6c0.3-0.4,0.8-0.6,1.4-0.6h4.5c0.6,0,1,0.2,1.4,0.6s0.5,1,0.5,1.7
		v19.1h1.2v1.7h-3.4V29.8h-3.6v0.6h3v11.4h4.1v0.4H231.3z M231.4,16.6h-2.8l2-4.4h0.4l-1.8,4h2.4L231.4,16.6z M232.3,19.9h-3.6v0.6
		h3v7.6h0.6V19.9z M231.3,21h-2.5v7.1h2.5V21z M231.8,15.6h-1.7l1.6-3.4h2L231.8,15.6z"/>
	<path class="st0" d="M242.1,39.6h2.5v-4.9h0.4v4.9h0.6v-4.9h2.3v6.6h-8.5l6-21.3H242v0.6h2.5l-6,21.3h9.4v0.4H238l6-21.3h-2v3.2
		h-2.3v-6h8.3L242.1,39.6z M238.6,25.2v-7h0.4v6.6h2.9v0.4H238.6z"/>
	<path class="st0" d="M72.8,85.1V64.8h-1.1v-2.7h0.4v2.3h1v19h0.7V63.7h-1.1v-1.7H82v6h-2.3v-4.3h-3.6v0.6h3v4.3H82V69h-3.3v-4.2
		h-2.6v7.1h4.6v1.7h-4.6v0.6h4.6v0.4h-4.6v8.7h2.6v-4.9H79v4.9h0.7v-4.9H82v6.6H72.8z M71.7,86.1v-2.7h0.4v2.3H82v0.4H71.7z
		 M78.1,60.4h-2.8l2-4.4h0.4l-1.8,4h2.4L78.1,60.4z M78.6,59.4h-1.7l1.6-3.4h2L78.6,59.4z"/>
	<path class="st0" d="M93.5,82.8c0,0.7-0.2,1.3-0.5,1.6s-0.8,0.6-1.4,0.6h-4.5c-0.6,0-1.1-0.2-1.4-0.6s-0.5-0.9-0.5-1.6v-4.4h2.3
		v4.9h2.5v-8.7h-2.9c-1,0-1.8-0.3-2.3-0.9s-0.8-1.3-0.8-2.1v-7.4c0-1.1,0.4-1.9,1.2-2.1c-0.5,0.5-0.8,1.2-0.8,2.1v7.4
		c0,0.7,0.2,1.3,0.7,1.8c0.4,0.5,1.1,0.8,2,0.8h3.2v9.1h0.6v-9.8h-4.1c-0.6,0-1.1-0.2-1.4-0.6c-0.3-0.4-0.5-0.9-0.5-1.6v-7.1
		c0-1.5,0.6-2.2,1.9-2.2h4.5c0.6,0,1.1,0.2,1.4,0.6c0.3,0.4,0.5,1,0.5,1.7V68h-2.3v-4.3h-3.6v0.6h3v4.3h2.9v0.4h-3.3v-4.3h-2.5v7.1
		h4c0.6,0,1.1,0.2,1.4,0.6s0.5,1,0.5,1.7V82.8z M93.4,84.8c-0.2,0.4-0.4,0.7-0.8,1c-0.4,0.2-0.8,0.4-1.3,0.4h-4.1
		c-1,0-1.7-0.3-2.2-0.9s-0.7-1.3-0.7-2.1v-4.6h0.4v4.6c0,0.7,0.2,1.3,0.7,1.8c0.5,0.5,1.1,0.8,2.1,0.8h3.9c0.4,0,0.8,0,1.1-0.1
		C92.8,85.4,93.1,85.2,93.4,84.8z"/>
	<path class="st0" d="M116.8,82.9c0,0.7-0.2,1.2-0.7,1.6s-1,0.6-1.6,0.6h-6.9V58.4h-1.1v-2.7h0.4V58h1v25.4h0.7v-26h-1.1v-1.7h7.4
		c0.6,0,1.1,0.2,1.4,0.6c0.3,0.4,0.5,0.9,0.5,1.6v9.7c0,0.6-0.1,1-0.3,1.3c-0.2,0.3-0.5,0.5-0.8,0.6v0.1c0.3,0.1,0.6,0.3,0.8,0.6
		c0.2,0.3,0.3,0.8,0.3,1.6V82.9z M116.6,84.8c-0.4,0.9-1.1,1.4-2.2,1.4h-8v-2.7h0.4v2.3h7.6c0.4,0,0.8-0.1,1.2-0.2
		C116,85.3,116.4,85.1,116.6,84.8z M114.5,57.4h-3.7V58h3v10.7h0.7V57.4z M113.4,58.4h-2.6v10.2h2.6V58.4z M114.7,70.4h-3.8V71h3
		v12.3h0.8V70.4z M113.4,71.4h-2.6v11.9h2.6V71.4z"/>
	<path class="st0" d="M120.8,85.1V64.8h-1.1v-2.7h0.4v2.3h1v19h0.7V63.7h-1.1v-1.7h4.4v1.7h-1.1v0.6h1.1v0.4h-1.1v18.6h1.1v1.7
		H120.8z M119.7,86.1v-2.7h0.4v2.3h5v0.4H119.7z"/>
	<path class="st0" d="M136.7,82.8c0,0.7-0.2,1.3-0.5,1.6s-0.8,0.6-1.4,0.6h-4.5c-0.6,0-1.1-0.2-1.4-0.6s-0.5-0.9-0.5-1.6v-4.4h2.3
		v4.9h2.5v-8.7h-2.9c-1,0-1.8-0.3-2.3-0.9s-0.8-1.3-0.8-2.1v-7.4c0-1.1,0.4-1.9,1.2-2.1c-0.5,0.5-0.8,1.2-0.8,2.1v7.4
		c0,0.7,0.2,1.3,0.7,1.8c0.4,0.5,1.1,0.8,2,0.8h3.2v9.1h0.6v-9.8h-4.1c-0.6,0-1.1-0.2-1.4-0.6c-0.3-0.4-0.5-0.9-0.5-1.6v-7.1
		c0-1.5,0.6-2.2,1.9-2.2h4.5c0.6,0,1.1,0.2,1.4,0.6c0.3,0.4,0.5,1,0.5,1.7V68h-2.3v-4.3h-3.6v0.6h3v4.3h2.9v0.4h-3.3v-4.3h-2.5v7.1
		h4c0.6,0,1.1,0.2,1.4,0.6s0.5,1,0.5,1.7V82.8z M136.7,84.8c-0.2,0.4-0.4,0.7-0.8,1c-0.4,0.2-0.8,0.4-1.3,0.4h-4.1
		c-1,0-1.7-0.3-2.2-0.9s-0.7-1.3-0.7-2.1v-4.6h0.4v4.6c0,0.7,0.2,1.3,0.7,1.8c0.5,0.5,1.1,0.8,2.1,0.8h3.9c0.4,0,0.8,0,1.1-0.1
		C136,85.4,136.3,85.2,136.7,84.8z"/>
	<path class="st0" d="M143.5,83.4h2.5v-4.9h0.4v4.9h0.6v-4.9h2.3v6.6H141l6-21.3h-3.4v0.6h2.5l-6,21.3h9.4v0.4h-9.9l6-21.3h-2V68
		h-2.3v-6h8.3L143.5,83.4z M140.1,69.1v-7h0.4v6.6h2.9v0.4H140.1z"/>
	<path class="st0" d="M151.7,69v-7h0.4v6.6h2.9V69H151.7z M160.5,69v-4.2h-1.1v18.6h1.1v1.7h-4.5V64.8h-1.1V68h-2.3v-5.9h11.1V68
		h-2.3v-4.2h-2.1v0.6h1.5v4.3h2.9V69H160.5z M157.2,63.7h-2.1v0.6h1.5v19h0.6V63.7z M155.1,86.1v-2.7h0.4v2.3h5.1v0.4H155.1z"/>
	<path class="st0" d="M173.1,86.1V74.7h-2.6v8.7h1.2v1.7h-4.5V64.8h-1.1v-2.7h0.4v2.3h1v19h0.7V63.7h-1.1v-1.7h7.4
		c0.6,0,1.1,0.2,1.4,0.6s0.5,0.9,0.5,1.6v6.4c0,0.7-0.1,1.1-0.3,1.4c-0.2,0.3-0.5,0.5-0.8,0.7v0.1c0.3,0.1,0.6,0.3,0.8,0.6
		c0.2,0.3,0.3,0.9,0.3,1.7v8.3h1.2v1.7h-3.4V73.6h-3.7v0.6h3v11.4h4.1v0.4H173.1z M166.1,86.1v-2.7h0.4v2.3h5.2v0.4H166.1z
		 M174.2,63.7h-3.7v0.6h3v7.6h0.7V63.7z M173.1,64.8h-2.6v7.1h2.6V64.8z"/>
	<path class="st0" d="M189.6,84.8c-0.2,0.4-0.4,0.7-0.8,1c-0.4,0.2-0.8,0.4-1.3,0.4h-4.1c-1,0-1.7-0.3-2.2-0.9s-0.7-1.3-0.7-2.1
		V64.3c0-1.1,0.4-1.9,1.2-2.1c-0.5,0.5-0.8,1.2-0.8,2.1v18.8c0,0.7,0.2,1.3,0.7,1.8c0.5,0.5,1.1,0.8,2.1,0.8h3.9
		c0.4,0,0.8,0,1.1-0.1C188.9,85.4,189.2,85.2,189.6,84.8z M189.6,82.8c0,0.7-0.2,1.3-0.5,1.6s-0.8,0.6-1.4,0.6h-4.5
		c-0.6,0-1.1-0.2-1.4-0.6s-0.5-0.9-0.5-1.6V64.3c0-0.7,0.2-1.3,0.5-1.6s0.8-0.6,1.4-0.6h4.5c0.6,0,1.1,0.2,1.4,0.6
		c0.3,0.4,0.5,1,0.5,1.7V82.8z M186.2,60.4h-2.8l2-4.4h0.4l-1.8,4h2.4L186.2,60.4z M187.3,63.7h-3.6v0.6h3v19h0.6V63.7z M186.3,64.8
		h-2.5v18.6h2.5V64.8z M186.7,59.4H185l1.6-3.4h2L186.7,59.4z"/>
</g>
</svg>
