<svg id="Layer_1" data-name="Layer 1" xmlns="http://www.w3.org/2000/svg" viewBox="0 0 100 100"><defs><style>.cls-1{fill:#634119;}</style></defs><title>gluten</title><path class="cls-1" d="M71.09,26.18a4.37,4.37,0,0,0,6,1.4c1.32-.82,3.68-4.42,5.19-6.87l4.58-4.42-7,2.38c-2.76.29-6.19.78-7.35,1.5A4.36,4.36,0,0,0,71.09,26.18Z"/><path class="cls-1" d="M66.55,29.19c1.75-1.2,1.91-4.56,1.73-7.14l8.48-11.43L65.48,20.44a1.51,1.51,0,0,0-.24.26,1.58,1.58,0,0,0-.23.47c-2.55,2.5-5.52,6.65-2.94,10.8,4.09,6.58,14.39.64,14.39.64l-.12-.09L88,28.1,73,30.42C70.88,29.26,68.22,28.25,66.55,29.19Z"/><path class="cls-1" d="M57.87,34.58c1.81-1.24,1.91-4.79,1.71-7.39l6.16-12.44L56.43,26.31a1.89,1.89,0,0,0-.19.3s0,0,0,.06c-2.53,2.51-5.38,6.6-2.84,10.69,3.14,5,9.91,2.74,12.91,1.39l13.12-2.6-14.58-.07C62.61,34.81,59.67,33.57,57.87,34.58Z"/><path class="cls-1" d="M49.46,39.8c1.75-1.2,1.91-4.56,1.73-7.13l6.74-14.24L48.34,31.19a1.89,1.89,0,0,0-.17.28.49.49,0,0,0,0,.11c-2.19,2.1-4.82,5.47-4,9l-.18.07c-.79.42-16.34,8.91-26.35,33.46-5.81-19.42,1.16-28.65,1.28-28.81l.1-.15c3.1,1.43,6.29-.38,8.49-2.24a1.64,1.64,0,0,0,1-.3l12.37-8.82-13.2,5.68c-2.37-.31-5.62-.41-6.85,1.18,1-1.57.05-4.27-1-6.34v0l.42-14.56L16.62,33.86c0,.11,0,.23-.05.35a1.37,1.37,0,0,0,0,.36c-1,2.5-1.86,6-.06,8.59l-.15.15C16,43.86,7.13,55.18,15.8,79a107.08,107.08,0,0,0-3.54,12.72,1.62,1.62,0,0,0,1.24,1.92,1.87,1.87,0,0,0,.34,0,1.61,1.61,0,0,0,1.57-1.27c.67-3.08,1.43-6,2.27-8.71a104.21,104.21,0,0,0,4.81,9.66,1.61,1.61,0,1,0,2.81-1.58,94.42,94.42,0,0,1-6-12.8c9.54-26.24,26-35.31,26.23-35.41l.14-.1c2.58,3,6.81,2.43,9.9,1.43a1.62,1.62,0,0,0,.82,0l16.3-3.42-15.53.2C54.87,40.33,51.46,38.68,49.46,39.8Z"/><path class="cls-1" d="M33.07,16a4,4,0,1,0,6.51,4.57c.78-1.11,1.45-4.7,1.84-7.28l3.83-7.45-6.88,6.46C36.23,13.5,33.75,15,33.07,16Z"/><path class="cls-1" d="M28.55,29.62C34.34,33.67,40.85,25,40.85,25h0l8.06-7.91L37,24.37c-2.16-.17-4.6,0-5.63,1.31,1-1.59,0-4.33-1-6.41L33.23,6.46,27.16,18.68A1.2,1.2,0,0,0,27,19a1.58,1.58,0,0,0,0,.75C25.86,22.8,25,27.14,28.55,29.62Z"/><path class="cls-1" d="M23.2,37.25c4.17,2.92,8.71-.76,10.93-3l10.46-7.29L32.07,32c-2.26-.23-5-.16-6.1,1.27,1-1.63,0-4.47-1.09-6.57l.59-12.87-3.81,13a2.32,2.32,0,0,0-.06.38,1.37,1.37,0,0,0,0,.35C20.48,30.6,19.74,34.82,23.2,37.25Z"/></svg>