<svg id="Layer_1" data-name="Layer 1" xmlns="http://www.w3.org/2000/svg" viewBox="0 0 100 100"><defs><style>.cls-1{fill:#634119;}</style></defs><title>laktoz</title><path class="cls-1" d="M85.87,20.32c-4-4.91-12.65-4.89-24.58-4.87H59.47a2.57,2.57,0,0,1,2.58-1.7,2.43,2.43,0,0,0,2.63-2.13V9.5a2.42,2.42,0,0,0-2.63-2.12H25.22c-1.45,0-8.94.52-8.94,1.7,0,0,5.26,1.7,7.89,3.83s3.68,3.93,3.68,5.1v13.9a2,2,0,0,1-.89,1.6c-3.34,2.36-14.89,11.2-14.89,20.66,0,11.06,3.42,28.28,10.52,34,3.57,2.88,12.19,3.94,18.21,4.28-1.45,0-.48.13,1.77.09,4.19.15,6.34,0,2.91-.11,6.06-.3,15.55-1.31,19.2-4.26,5.56-4.49,9-17.12,10.14-27.41C87.66,36.15,90.45,25.89,85.87,20.32ZM61.7,85.79C60.21,87,55,88.58,45.22,89.07v.15c-.56,0-1.4,0-2.47,0h-.29l-1.1,0h-.28v-.08c-9.07-.51-14-2-15.52-3.3-5.56-4.49-9.29-20-9.29-31.62a11.57,11.57,0,0,1,1-4.54c8.92-1.85,14.12-2.15,18.43-.57,5.79,2.13,14.21,3.83,21.58,1.7a63.36,63.36,0,0,1,12.19-2.28A11,11,0,0,1,71,54.17C71,65.55,67,81.49,61.7,85.79ZM74.12,48.64c-2.66-6.32-9.67-9.52-14.29-15.21a1.89,1.89,0,0,1-.41-1.16V20.56h1.89c10,0,17.14,0,19.3,2.58C83.51,26.67,79.69,37.06,74.12,48.64Z"/></svg>