<svg id="Layer_1" data-name="Layer 1" xmlns="http://www.w3.org/2000/svg" viewBox="0 0 100 100"><defs><style>.cls-1{fill:#634119;}</style></defs><title>tojas</title><path class="cls-1" d="M75.85,9.21C68.67,4.92,59,5.76,48.7,11.58c-10,5.61-19.26,15.09-26.2,26.69-13.41,22.41-11.93,41.46,4,51a29.29,29.29,0,0,0,15.11,4.25,29.61,29.61,0,0,0,9.59-1.61C60.35,88.75,68.75,81.17,75.46,70c6.94-11.6,10.89-24.28,11.13-35.7C86.84,22.4,83,13.51,75.85,9.21ZM72.69,68.3C66.38,78.84,58.57,85.94,50.12,88.82a25.9,25.9,0,0,1-22-2.35c-14.36-8.6-15.4-25.56-2.84-46.55,6.56-11,15.68-20.27,25-25.53C55.77,11.3,61,9.74,65.6,9.74A16.51,16.51,0,0,1,74.19,12c6.14,3.68,9.4,11.56,9.17,22.21S79.25,57.34,72.69,68.3Z"/><circle class="cls-1" cx="42.71" cy="64.59" r="21.1" transform="translate(-33.17 49.12) rotate(-45)"/></svg>