<svg id="Layer_1" data-name="Layer 1" xmlns="http://www.w3.org/2000/svg" viewBox="0 0 100 100"><defs><style>.cls-1{fill:#e4c080;}.cls-2{fill:#634119;}</style></defs><title>vega</title><path class="cls-1" d="M50.74,93.6A43.27,43.27,0,1,1,94,50.34,43.31,43.31,0,0,1,50.74,93.6Zm0-81.91A38.65,38.65,0,1,0,89.39,50.34,38.69,38.69,0,0,0,50.74,11.69Z"/><path class="cls-2" d="M70.07,28.05c-.73.27-1.47.54-2.18.84s-1.41.65-2.1,1-1.38.71-2.05,1.1-1.33.78-2,1.2A43.51,43.51,0,0,0,58,34.9c-.6.48-1.2,1-1.77,1.49s-1.13,1-1.69,1.58a52,52,0,0,0-6,7,55.88,55.88,0,0,0-8.1,16.44l-.09.32a33.65,33.65,0,0,0-1.61-5.3A28.88,28.88,0,0,0,36,51.08,23.77,23.77,0,0,0,32,46.39,18.94,18.94,0,0,0,26.58,43a12.89,12.89,0,0,0-6.41-1c.45,1,.88,2,1.28,2.86s.76,1.74,1.11,2.55l1.94,4.67c.62,1.5,1.25,3,1.9,4.43s1.35,2.92,2.05,4.4c1.41,3,2.85,6,4.53,9.16.84,1.57,1.73,3.15,2.72,4.76a52.46,52.46,0,0,0,3.35,4.92h0c2-2.46,3.74-4.79,5.5-7.08L49.64,66l4.93-6.49c1.64-2.13,3.28-4.22,4.92-6.31C62.8,49,66.12,45,69.4,40.62c1.68-2.14,3.3-4.41,5-6.74.82-1.2,1.67-2.39,2.5-3.66s1.7-2.54,2.47-4A29.7,29.7,0,0,0,70.07,28.05Z"/></svg>